<svg xmlns="http://www.w3.org/2000/svg" viewBox="0 0 320 100">
  <defs>
    <style>
      .st0 { fill: #30ba78; }
      .st1 { fill: #fff; }
    </style>
  </defs>
  
  <!-- Integrated SUSE Logo (Paths from original) -->
  <g transform="translate(0, 15) scale(1.4)">
    <g>
      <path class="st1" d="M202.91,37.78c-3.29,0-5.96-2.67-5.96-5.96V14.17c0-3.28,2.67-5.96,5.96-5.96h13.55c1.06,0,1.93.86,1.93,1.93s-.86,1.92-1.93,1.92h-13.55c-1.16,0-2.11.95-2.11,2.11v6.95h13.29c1.01,0,1.82.82,1.82,1.82s-.82,1.82-1.82,1.82h-13.29v7.06c0,1.16.95,2.11,2.11,2.11h13.55c1.06,0,1.93.87,1.93,1.93s-.86,1.92-1.93,1.92h-13.55ZM142.13,38.17c-3.91,0-6.92-.99-8.95-2.95-2.03-1.95-3.06-4.89-3.06-8.74V10.05c0-1.23,1-2.23,2.23-2.23s2.23,1,2.23,2.23v15.84c0,2.88.62,5.03,1.84,6.41,1.23,1.38,3.15,2.08,5.7,2.08s4.47-.7,5.7-2.08c1.22-1.38,1.84-3.53,1.84-6.41v-15.84c0-1.23,1-2.23,2.23-2.23s2.23,1,2.23,2.23v16.43c0,3.84-1.03,6.78-3.06,8.74-2.03,1.96-5.04,2.95-8.95,2.95M175.65,38.17c-5.03,0-8.87-1.43-11.39-4.25-.73-.82-.68-2.07.11-2.86h0s0-.02,0-.02c.4-.4.93-.62,1.5-.62.6,0,1.16.25,1.55.7.7.81,1.51,1.47,2.4,1.97,1.55.86,3.49,1.29,5.78,1.29s3.91-.38,5.15-1.14c1.28-.78,1.94-1.9,1.94-3.33,0-1.16-.59-2.1-1.75-2.81-1.13-.68-3.04-1.27-5.84-1.79-2.72-.51-4.91-1.14-6.51-1.88-1.59-.73-2.75-1.65-3.46-2.73-.71-1.07-1.07-2.4-1.07-3.96,0-1.64.46-3.15,1.37-4.5.91-1.35,2.24-2.43,3.96-3.23,1.73-.8,3.78-1.2,6.09-1.2,2.7,0,5.04.49,6.94,1.47,1.28.65,2.44,1.56,3.45,2.68.77.86.7,2.19-.16,2.97-.39.35-.89.54-1.41.54-.66,0-1.27-.3-1.67-.82-.57-.74-1.22-1.35-1.92-1.8-1.3-.83-3.04-1.26-5.18-1.26s-3.79.43-4.97,1.28c-1.2.87-1.81,2-1.81,3.36,0,1.28.6,2.31,1.77,3.05,1.14.73,3.12,1.34,6.05,1.86,2.66.48,4.79,1.09,6.35,1.82,1.54.72,2.68,1.62,3.38,2.69.7,1.06,1.05,2.4,1.05,3.98,0,1.7-.49,3.21-1.45,4.49-.97,1.29-2.35,2.29-4.09,2.98-1.76.69-3.83,1.05-6.15,1.05M108.82,38.18c-5.04,0-8.87-1.43-11.4-4.25-.73-.81-.68-2.07.11-2.86h.01c.4-.41.94-.63,1.5-.63.6,0,1.16.26,1.55.7.7.81,1.51,1.47,2.39,1.97,1.55.86,3.49,1.3,5.78,1.3,2.17,0,3.91-.38,5.16-1.14,1.28-.78,1.93-1.9,1.93-3.33,0-1.16-.59-2.1-1.75-2.81-1.13-.68-3.04-1.27-5.84-1.79-2.72-.51-4.91-1.14-6.51-1.88-1.58-.74-2.75-1.65-3.46-2.73-.71-1.07-1.07-2.4-1.07-3.96,0-1.64.46-3.15,1.37-4.5.91-1.35,2.24-2.44,3.96-3.23,1.73-.8,3.78-1.2,6.09-1.2,2.7,0,5.04.5,6.94,1.47,1.28.66,2.44,1.56,3.45,2.68.77.86.7,2.19-.16,2.97-.39.35-.89.54-1.41.54-.66,0-1.27-.3-1.67-.82-.57-.74-1.22-1.35-1.92-1.8-1.3-.83-3.04-1.26-5.18-1.26s-3.79.43-4.97,1.28c-1.2.87-1.81,2-1.81,3.36,0,1.28.6,2.31,1.77,3.05,1.14.73,3.12,1.34,6.05,1.86,2.65.48,4.79,1.09,6.35,1.82,1.54.72,2.67,1.62,3.37,2.68.7,1.06,1.05,2.4,1.05,3.98,0,1.7-.49,3.21-1.45,4.49-.97,1.29-2.35,2.3-4.09,2.99-1.76.69-3.83,1.05-6.14,1.05"/>
      <path class="st0" d="M79.54,18.26c-.48-.49-1.26-.49-1.74,0-.54.53-.47,1.46.19,1.9.41.27.95.27,1.35,0,.66-.44.73-1.36.19-1.9M77.95,14.08c-3.28-.77-6.23,2.18-5.46,5.46.39,1.67,1.72,3,3.39,3.39,3.28.77,6.24-2.18,5.46-5.47-.39-1.67-1.72-3-3.39-3.39M56.27,32.57c-2.14-.79-2.97-.63-5.7-.59-1.9.02-1.97-.04-4.13-.04-.67,0-.92,3.2,1.5,3.87,1.06.29,2.2.48,3,1.29.35.36.55.9-.26.9h-6.01c-1.05,0-2.04.02-2.85-.66-1.21-1.03-1.78-2.44-2.39-3.83-.63-1.45-1.31-2.89-2.11-4.26-1.59-2.73-3.68-5.19-6.5-6.7-3.51-1.88-9.47-2.82-14.19.81-4.97,3.82-3.91,10.97.44,14.47,1.72,1.38,3.96,1.96,6.16,1.83,4.3-.25,7.48-3.42,6.69-7.32-.26-1.31-1.03-2.54-2.17-3.22-.82-.48-1.78-.65-2.73-.65-1.02,0-2.1.21-2.83.91-.86.84-1,2.32-.31,3.3.38.55,1,1.01.9,1.72-.07.48-.47.84-.94.94-.81.18-1.55-.28-2.09-.84-1.4-1.44-1.84-3.73-1.07-5.59,1.01-2.43,3.8-3.76,6.43-3.68,3.39.11,6.58,2.35,7.97,5.44,1.39,3.09.97,6.89-.94,9.69-4.25,6.22-14.76,5.48-19.64.24-3.06-3.29-4.72-6.48-4.49-12.42.16-4.2,2.59-8.34,5.68-11.25,5.03-4.74,11.66-7.99,18.41-9.38,4.1-.85,8.33-1.05,12.48-.63,3.67.36,7.31,1.04,10.84,2.13,1.75.55,3.47,1.19,5.14,1.96,1.47.67,3.39,1.41,4.54,2.57,0-2.11-.08-4.42-.08-6.04,0-.62.65-1.03,1.2-.77,2.39,1.11,8.04,3.78,11.8,5.5,5.05,2.31,5.41,7.75,5.58,12.58,0,.11,0,.22-.04.31-.16.33-1.01.24-1.32.25-.6,0-1.51,0-2.12.03-1.2.05-2.38.03-3.58-.03-2.23-.11-4.38-1.1-5.83-2.31-.14-.12-.61-.25-.83-.03-.23.24-.15.6-.03.73.83.84,1.72,1.38,2.77,1.91,1.33.68,2.77.85,4.24.94,1.57.09,3.15.07,4.72-.09,1.31-.13,1.65-.22.36.74-1.13.84-2.45,1.45-3.78,1.9-1.91.65-3.93.97-5.95,1.03-1.22.03-2.45-.03-3.66-.19-.63-.08-1.25-.19-1.88-.26-.51-.05-1.04-.15-1.55-.04-.46.1-.89.35-1.18.73-.4.52-.54,1.95-.31,2.57.45,1.2,1.42,1.9,2.46,2.51,1.12.67,2.59.89,2.88,2.17.06.27-2.32.27-2.59.27h-3.17s-1.72.04-2.39-.2c-.02,0-.04-.02-.06-.03-.36-.2-.52-.68-.65-1.05-.18-.52-.49-1.04-.86-1.58-.72-1.02-1.82-2.14-2.96-2.56M80.27,18.51c0,1.86-1.5,3.36-3.36,3.36s-3.36-1.5-3.36-3.36,1.5-3.36,3.36-3.36,3.36,1.5,3.36,3.36"/>
    </g>
  </g>
</svg>